# Blender 4.5.3 LTS
# www.blender.org
mtllib incredible.mtl
o Plane.001
v -0.613984 -0.002559 -0.000000
v 0.337631 -0.002559 -0.000000
v -0.670373 0.140664 -0.000000
v -0.713482 0.323352 -0.000000
v -0.722043 0.591565 -0.000000
v -0.701814 0.819304 -0.000000
v -0.695314 0.962210 -0.000000
v -0.677690 1.046291 0.000000
v -0.667777 1.283275 0.000000
v -0.635659 1.443609 0.000000
v -0.595963 1.565076 0.000000
v -0.618023 1.674527 0.000000
v -0.622036 1.824598 0.000000
v -0.600241 1.915703 0.000000
v -0.663285 2.037379 0.000000
v -0.716034 2.178854 0.000000
v -0.750593 2.317159 0.000000
v -0.822851 2.382797 0.000000
v -0.872700 2.428290 0.000000
v -0.953151 2.426120 0.000000
v -0.999427 2.433075 0.000000
v -1.004065 2.487679 0.000000
v -1.002272 2.643382 0.000000
v -1.063244 2.813677 0.000000
v -1.077884 3.009411 0.000000
v -0.994758 3.195247 0.000000
v -0.916981 3.291425 0.000000
v -0.813568 3.313942 0.000000
v -0.708623 3.338724 0.000000
v -0.633723 3.327581 0.000000
v -0.575456 3.285290 0.000000
v -0.269526 3.374000 0.000000
v -0.269691 3.448927 0.000000
v -0.236144 3.416705 0.000000
v -0.219510 3.669483 0.000000
v -0.198381 3.767878 0.000000
v -0.157780 3.885179 0.000000
v -0.105298 3.946182 0.000000
v -0.048365 3.977895 0.000000
v 0.040820 3.982400 0.000000
v 0.102533 3.965155 0.000000
v 0.166122 3.926386 0.000000
v 0.203486 3.884963 0.000000
v 0.229123 3.836569 0.000000
v 0.247443 3.684512 0.000000
v 0.242711 3.488787 0.000000
v 0.253338 3.471969 0.000000
v 0.261049 3.439946 0.000000
v 0.254796 3.398335 0.000000
v 0.248590 3.377659 0.000000
v 0.241752 3.343973 0.000000
v 0.240409 3.316970 0.000000
v 0.278695 3.301120 0.000000
v 0.393634 3.230190 0.000000
v 0.536342 3.117231 0.000000
v 0.606082 3.046101 0.000000
v 0.692660 2.968307 0.000000
v 0.803518 2.815160 0.000000
v 0.890182 2.603166 0.000000
v 1.009054 2.378303 0.000000
v 1.070573 2.158801 0.000000
v 1.094135 2.029950 0.000000
v 1.117050 1.888626 0.000000
v 1.125822 1.850397 0.000000
v 1.132164 1.827858 0.000000
v 1.145587 1.806956 0.000000
v 1.170277 1.748014 0.000000
v 1.195003 1.683011 0.000000
v 1.205729 1.601029 0.000000
v 1.212287 1.464262 0.000000
v 1.200583 1.344099 0.000000
v 1.162392 1.254512 0.000000
v 1.107715 1.198525 0.000000
v 1.039538 1.139359 0.000000
v 0.946196 1.095043 0.000000
v 0.800554 1.093043 0.000000
v 0.703477 1.166730 0.000000
v 0.663901 1.282173 0.000000
v 0.634690 1.433046 0.000000
v 0.614090 1.448178 0.000000
v 0.555080 1.449295 0.000000
v 0.525316 1.458235 0.000000
v 0.468597 1.469819 0.000000
v 0.434302 1.476499 0.000000
v 0.383979 1.493895 0.000000
v 0.368198 1.499715 0.000000
v 0.352631 1.491719 0.000000
v 0.341742 1.456853 0.000000
v 0.338686 1.404372 0.000000
v 0.345892 1.333105 0.000000
v 0.349884 1.256308 0.000000
v 0.367293 0.961724 -0.000000
v 0.399640 0.738600 -0.000000
v 0.412537 0.484288 -0.000000
v 0.377997 0.182716 -0.000000
v -0.613984 -0.002559 -0.114289
v 0.337631 -0.002559 -0.114289
v -0.670373 0.140664 -0.114289
v -0.713482 0.323352 -0.114289
v -0.722043 0.591565 -0.114289
v -0.701814 0.819304 -0.114289
v -0.695314 0.962210 -0.114289
v -0.677690 1.046291 -0.114289
v -0.667777 1.283275 -0.114289
v -0.635659 1.443609 -0.114289
v -0.595963 1.565076 -0.114289
v -0.618023 1.674527 -0.114289
v -0.622036 1.824598 -0.114289
v -0.600241 1.915703 -0.114289
v -0.663285 2.037379 -0.114289
v -0.716034 2.178854 -0.114289
v -0.750593 2.317159 -0.114289
v -0.822851 2.382797 -0.114289
v -0.872700 2.428290 -0.114289
v -0.953151 2.426120 -0.114289
v -0.999427 2.433075 -0.114289
v -1.004065 2.487679 -0.114289
v -1.002272 2.643382 -0.114289
v -1.063244 2.813677 -0.114289
v -1.077884 3.009411 -0.114289
v -0.994758 3.195247 -0.114289
v -0.916981 3.291425 -0.114289
v -0.813568 3.313942 -0.114289
v -0.708623 3.338724 -0.114289
v -0.633723 3.327581 -0.114289
v -0.575456 3.285290 -0.114289
v -0.269526 3.374000 -0.114289
v -0.269691 3.448927 -0.114289
v -0.236144 3.416705 -0.114289
v -0.219510 3.669483 -0.114289
v -0.198381 3.767878 -0.114289
v -0.157780 3.885179 -0.114289
v -0.105298 3.946182 -0.114289
v -0.048365 3.977895 -0.114289
v 0.040820 3.982400 -0.114289
v 0.102533 3.965155 -0.114289
v 0.166122 3.926386 -0.114289
v 0.203486 3.884963 -0.114289
v 0.229123 3.836569 -0.114289
v 0.247443 3.684512 -0.114289
v 0.242711 3.488787 -0.114289
v 0.253338 3.471969 -0.114289
v 0.261049 3.439946 -0.114289
v 0.254796 3.398335 -0.114289
v 0.248590 3.377659 -0.114289
v 0.241752 3.343973 -0.114289
v 0.240409 3.316970 -0.114289
v 0.278695 3.301120 -0.114289
v 0.393634 3.230190 -0.114289
v 0.536342 3.117231 -0.114289
v 0.606082 3.046101 -0.114289
v 0.692660 2.968307 -0.114289
v 0.803518 2.815160 -0.114289
v 0.890182 2.603166 -0.114289
v 1.009054 2.378303 -0.114289
v 1.070573 2.158801 -0.114289
v 1.094135 2.029950 -0.114289
v 1.117050 1.888626 -0.114289
v 1.125822 1.850397 -0.114289
v 1.132164 1.827858 -0.114289
v 1.145587 1.806956 -0.114289
v 1.170277 1.748014 -0.114289
v 1.195003 1.683011 -0.114289
v 1.205729 1.601029 -0.114289
v 1.212287 1.464262 -0.114289
v 1.200583 1.344099 -0.114289
v 1.162392 1.254512 -0.114289
v 1.107715 1.198525 -0.114289
v 1.039538 1.139359 -0.114289
v 0.946196 1.095043 -0.114289
v 0.800554 1.093043 -0.114289
v 0.703477 1.166730 -0.114289
v 0.663901 1.282173 -0.114289
v 0.634690 1.433046 -0.114289
v 0.614090 1.448178 -0.114289
v 0.555080 1.449295 -0.114289
v 0.525316 1.458235 -0.114289
v 0.468597 1.469819 -0.114289
v 0.434302 1.476499 -0.114289
v 0.383979 1.493895 -0.114289
v 0.368198 1.499715 -0.114289
v 0.352631 1.491719 -0.114289
v 0.341742 1.456853 -0.114289
v 0.338686 1.404372 -0.114289
v 0.345892 1.333105 -0.114289
v 0.349884 1.256308 -0.114289
v 0.367293 0.961724 -0.114289
v 0.399640 0.738600 -0.114289
v 0.412537 0.484288 -0.114289
v 0.377997 0.182716 -0.114289
vn -0.0000 -0.0000 1.0000
vn -0.0000 -0.0000 -1.0000
vn 0.9971 0.0762 -0.0000
vn 0.9998 0.0212 -0.0000
vn 0.9690 0.2472 -0.0000
vn 0.9814 0.1918 -0.0000
vn -0.6397 0.7686 -0.0000
vn -0.8731 0.4875 -0.0000
vn -0.9937 -0.1117 -0.0000
vn -0.9985 0.0547 -0.0000
vn 0.9985 0.0555 -0.0000
vn 0.9150 0.4034 -0.0000
vn -0.2829 0.9591 -0.0000
vn -0.9948 0.1020 -0.0000
vn 0.9949 0.1011 -0.0000
vn 0.8865 0.4627 -0.0000
vn 0.1123 0.9937 -0.0000
vn -0.9942 -0.1077 -0.0000
vn 0.9953 0.0969 -0.0000
vn 0.9287 0.3709 -0.0000
vn 0.4022 0.9156 -0.0000
vn -0.9146 -0.4043 -0.0000
vn 0.9995 -0.0315 -0.0000
vn 0.9705 0.2412 -0.0000
vn 0.6434 0.7656 -0.0000
vn -0.9553 -0.2955 -0.0000
vn 0.9866 -0.1631 -0.0000
vn 0.9961 0.0887 -0.0000
vn 0.8225 0.5687 -0.0000
vn -0.8732 -0.4873 -0.0000
vn 0.9771 -0.2129 -0.0000
vn 0.9997 -0.0245 -0.0000
vn 0.9569 0.2903 -0.0000
vn -0.6732 -0.7394 -0.0000
vn 0.9702 -0.2421 -0.0000
vn 0.9989 0.0476 -0.0000
vn -0.3739 -0.9275 -0.0000
vn 0.8388 -0.5445 -0.0000
vn 0.9690 0.2471 -0.0000
vn -0.0613 -0.9981 -0.0000
vn 0.6864 -0.7272 -0.0000
vn 0.9244 0.3814 -0.0000
vn -0.8162 -0.5778 -0.0000
vn 0.5515 -0.8342 -0.0000
vn 0.9991 0.0419 -0.0000
vn -0.9993 -0.0365 -0.0000
vn 0.2318 -0.9728 -0.0000
vn 0.9761 -0.2175 -0.0000
vn -0.9871 -0.1603 -0.0000
vn -0.3295 -0.9442 -0.0000
vn 0.9700 -0.2430 -0.0000
vn -0.9789 -0.2041 -0.0000
vn -0.8283 -0.5603 -0.0000
vn 0.9923 -0.1239 -0.0000
vn -0.9867 0.1623 -0.0000
vn -0.9665 -0.2567 -0.0000
vn 0.8995 0.4370 -0.0000
vn -0.8555 0.5177 -0.0000
vn -0.8694 -0.4941 -0.0000
vn 0.4566 0.8897 -0.0000
vn -0.5508 0.8347 -0.0000
vn -0.3354 -0.9421 -0.0000
vn 0.5747 0.8184 -0.0000
vn -0.2213 0.9752 -0.0000
vn -0.0000 -1.0000 -0.0000
vn -0.1562 -0.9877 -0.0000
vn 0.6696 0.7427 -0.0000
vn -0.0429 0.9991 -0.0000
vn -0.9547 -0.2974 -0.0000
vn -0.9305 -0.3663 -0.0000
vn -0.2444 -0.9697 -0.0000
vn 0.6918 0.7221 -0.0000
vn 0.1471 0.9891 -0.0000
vn -0.9915 -0.1301 -0.0000
vn -0.1956 -0.9807 -0.0000
vn 0.7461 0.6659 -0.0000
vn 0.5874 0.8093 -0.0000
vn -0.9996 0.0282 -0.0000
vn -0.2602 -0.9655 -0.0000
vn 0.8765 0.4814 -0.0000
vn -0.8697 0.4936 -0.0000
vn -0.2785 0.9604 -0.0000
vn -0.9978 0.0669 -0.0000
vn -0.3364 -0.9417 -0.0000
vn 0.9063 0.4226 -0.0000
vn -1.0000 -0.0022 -0.0000
vn -0.9922 0.1249 -0.0000
vn 0.0661 -0.9978 -0.0000
vn 0.9301 0.3674 -0.0000
vn 0.6927 0.7212 -0.0000
vn -0.9924 0.1230 -0.0000
vn 0.7989 -0.6014 -0.0000
vn 0.9744 0.2247 -0.0000
vn -0.9905 0.1374 -0.0000
vn -0.9978 0.0657 -0.0000
vn -0.9929 0.1187 -0.0000
vn 0.9842 -0.1768 -0.0000
vn 0.9855 0.1700 -0.0000
vn -0.9634 0.2681 -0.0000
vn -0.9674 0.2531 -0.0000
vt 0.621356 0.000000
vt 0.635864 0.046337
vt 0.648279 0.121760
vt 0.643644 0.185364
vt 0.632017 0.241167
vt 0.625760 0.314842
vt 0.624325 0.334049
vt 0.621735 0.351873
vt 0.622833 0.364998
vt 0.626747 0.373718
vt 0.632343 0.375718
vt 0.638015 0.374263
vt 0.656102 0.369912
vt 0.668429 0.368241
vt 0.688816 0.365344
vt 0.699514 0.363108
vt 0.720724 0.362829
vt 0.728128 0.359044
vt 0.738628 0.321311
vt 0.752853 0.292439
vt 0.787746 0.274010
vt 0.840094 0.274510
vt 0.873644 0.285593
vt 0.898149 0.300391
vt 0.917802 0.314393
vt 0.931529 0.336799
vt 0.935736 0.366851
vt 0.933379 0.401057
vt 0.929523 0.421560
vt 0.920636 0.437818
vt 0.911762 0.452559
vt 0.906937 0.457787
vt 0.904657 0.463424
vt 0.901504 0.472985
vt 0.893268 0.508330
vt 0.884799 0.540555
vt 0.862687 0.595453
vt 0.819961 0.651691
vt 0.788811 0.704710
vt 0.748965 0.743013
vt 0.717846 0.762469
vt 0.692779 0.780258
vt 0.641485 0.808509
vt 0.600172 0.826249
vt 0.586411 0.830213
vt 0.586894 0.836966
vt 0.589351 0.845391
vt 0.591582 0.850562
vt 0.593829 0.860969
vt 0.591058 0.868978
vt 0.587238 0.873184
vt 0.588939 0.922135
vt 0.582355 0.960165
vt 0.573139 0.972268
vt 0.559710 0.982628
vt 0.536854 0.992324
vt 0.514672 0.996637
vt 0.482616 0.995510
vt 0.462152 0.987579
vt 0.443289 0.972322
vt 0.428695 0.942985
vt 0.421101 0.918376
vt 0.415122 0.855157
vt 0.403064 0.863216
vt 0.403123 0.844476
vt 0.293162 0.822290
vt 0.272219 0.832867
vt 0.245298 0.835654
vt 0.207577 0.829456
vt 0.170407 0.823824
vt 0.142451 0.799770
vt 0.112573 0.753293
vt 0.117835 0.704340
vt 0.139750 0.661749
vt 0.139106 0.622808
vt 0.140773 0.609151
vt 0.157406 0.607412
vt 0.186323 0.607955
vt 0.204240 0.596577
vt 0.230212 0.580161
vt 0.242634 0.545571
vt 0.261594 0.510188
vt 0.284253 0.479757
vt 0.276420 0.456971
vt 0.277862 0.419439
vt 0.285791 0.392065
vt 0.271523 0.361686
vt 0.259979 0.321587
vt 0.256416 0.262317
vt 0.250081 0.241288
vt 0.247745 0.205548
vt 0.240474 0.148590
vt 0.243551 0.081510
vt 0.259046 0.035820
vt 0.279314 0.000000
s 0
usemtl Material.003
f 2/1/1 95/2/1 94/3/1 93/4/1 92/5/1 91/6/1 90/7/1 89/8/1 88/9/1 87/10/1 86/11/1 85/12/1 84/13/1 83/14/1 82/15/1 81/16/1 80/17/1 79/18/1 78/19/1 77/20/1 76/21/1 75/22/1 74/23/1 73/24/1 72/25/1 71/26/1 70/27/1 69/28/1 68/29/1 67/30/1 66/31/1 65/32/1 64/33/1 63/34/1 62/35/1 61/36/1 60/37/1 59/38/1 58/39/1 57/40/1 56/41/1 55/42/1 54/43/1 53/44/1 52/45/1 51/46/1 50/47/1 49/48/1 48/49/1 47/50/1 46/51/1 45/52/1 44/53/1 43/54/1 42/55/1 41/56/1 40/57/1 39/58/1 38/59/1 37/60/1 36/61/1 35/62/1 34/63/1 33/64/1 32/65/1 31/66/1 30/67/1 29/68/1 28/69/1 27/70/1 26/71/1 25/72/1 24/73/1 23/74/1 22/75/1 21/76/1 20/77/1 19/78/1 18/79/1 17/80/1 16/81/1 15/82/1 14/83/1 13/84/1 12/85/1 11/86/1 10/87/1 9/88/1 8/89/1 7/90/1 6/91/1 5/92/1 4/93/1 3/94/1 1/95/1
f 97/1/2 96/95/2 98/94/2 99/93/2 100/92/2 101/91/2 102/90/2 103/89/2 104/88/2 105/87/2 106/86/2 107/85/2 108/84/2 109/83/2 110/82/2 111/81/2 112/80/2 113/79/2 114/78/2 115/77/2 116/76/2 117/75/2 118/74/2 119/73/2 120/72/2 121/71/2 122/70/2 123/69/2 124/68/2 125/67/2 126/66/2 127/65/2 128/64/2 129/63/2 130/62/2 131/61/2 132/60/2 133/59/2 134/58/2 135/57/2 136/56/2 137/55/2 138/54/2 139/53/2 140/52/2 141/51/2 142/50/2 143/49/2 144/48/2 145/47/2 146/46/2 147/45/2 148/44/2 149/43/2 150/42/2 151/41/2 152/40/2 153/39/2 154/38/2 155/37/2 156/36/2 157/35/2 158/34/2 159/33/2 160/32/2 161/31/2 162/30/2 163/29/2 164/28/2 165/27/2 166/26/2 167/25/2 168/24/2 169/23/2 170/22/2 171/21/2 172/20/2 173/19/2 174/18/2 175/17/2 176/16/2 177/15/2 178/14/2 179/13/2 180/12/2 181/11/2 182/10/2 183/9/2 184/8/2 185/7/2 186/6/2 187/5/2 188/4/2 189/3/2 190/2/2
s 1
f 90/7/3 185/7/3 184/8/4 89/8/4
f 64/33/5 159/33/5 158/34/6 63/34/6
f 38/59/7 133/59/7 132/60/8 37/60/8
f 12/85/9 107/85/9 106/86/10 11/86/10
f 91/6/11 186/6/11 185/7/3 90/7/3
f 65/32/12 160/32/12 159/33/5 64/33/5
f 39/58/13 134/58/13 133/59/7 38/59/7
f 13/84/14 108/84/14 107/85/9 12/85/9
f 92/5/15 187/5/15 186/6/11 91/6/11
f 66/31/16 161/31/16 160/32/12 65/32/12
f 40/57/17 135/57/17 134/58/13 39/58/13
f 14/83/18 109/83/18 108/84/14 13/84/14
f 93/4/19 188/4/19 187/5/15 92/5/15
f 67/30/20 162/30/20 161/31/16 66/31/16
f 41/56/21 136/56/21 135/57/17 40/57/17
f 15/82/22 110/82/22 109/83/18 14/83/18
f 94/3/23 189/3/23 188/4/19 93/4/19
f 68/29/24 163/29/24 162/30/20 67/30/20
f 42/55/25 137/55/25 136/56/21 41/56/21
f 16/81/26 111/81/26 110/82/22 15/82/22
f 95/2/27 190/2/27 189/3/23 94/3/23
f 69/28/28 164/28/28 163/29/24 68/29/24
f 43/54/29 138/54/29 137/55/25 42/55/25
f 17/80/30 112/80/30 111/81/26 16/81/26
f 2/1/31 97/1/31 190/2/27 95/2/27
f 70/27/32 165/27/32 164/28/28 69/28/28
f 44/53/33 139/53/33 138/54/29 43/54/29
f 18/79/34 113/79/34 112/80/30 17/80/30
f 71/26/35 166/26/35 165/27/32 70/27/32
f 45/52/36 140/52/36 139/53/33 44/53/33
f 19/78/37 114/78/37 113/79/34 18/79/34
f 72/25/38 167/25/38 166/26/35 71/26/35
f 46/51/39 141/51/39 140/52/36 45/52/36
f 20/77/40 115/77/40 114/78/37 19/78/37
f 73/24/41 168/24/41 167/25/38 72/25/38
f 47/50/42 142/50/42 141/51/39 46/51/39
f 21/76/43 116/76/43 115/77/40 20/77/40
f 74/23/44 169/23/44 168/24/41 73/24/41
f 48/49/45 143/49/45 142/50/42 47/50/42
f 22/75/46 117/75/46 116/76/43 21/76/43
f 75/22/47 170/22/47 169/23/44 74/23/44
f 49/48/48 144/48/48 143/49/45 48/49/45
f 23/74/49 118/74/49 117/75/46 22/75/46
f 76/21/50 171/21/50 170/22/47 75/22/47
f 50/47/51 145/47/51 144/48/48 49/48/48
f 24/73/52 119/73/52 118/74/49 23/74/49
f 77/20/53 172/20/53 171/21/50 76/21/50
f 51/46/54 146/46/54 145/47/51 50/47/51
f 25/72/55 120/72/55 119/73/52 24/73/52
f 78/19/56 173/19/56 172/20/53 77/20/53
f 52/45/57 147/45/57 146/46/54 51/46/54
f 26/71/58 121/71/58 120/72/55 25/72/55
f 79/18/59 174/18/59 173/19/56 78/19/56
f 53/44/60 148/44/60 147/45/57 52/45/57
f 27/70/61 122/70/61 121/71/58 26/71/58
f 80/17/62 175/17/62 174/18/59 79/18/59
f 54/43/63 149/43/63 148/44/60 53/44/60
f 28/69/64 123/69/64 122/70/61 27/70/61
s 0
f 1/95/65 96/95/65 97/1/65 2/1/65
s 1
f 81/16/66 176/16/66 175/17/62 80/17/62
f 55/42/67 150/42/67 149/43/63 54/43/63
f 29/68/68 124/68/68 123/69/64 28/69/64
f 3/94/69 98/94/69 96/95/70 1/95/70
f 82/15/71 177/15/71 176/16/66 81/16/66
f 56/41/72 151/41/72 150/42/67 55/42/67
f 30/67/73 125/67/73 124/68/68 29/68/68
f 4/93/74 99/93/74 98/94/69 3/94/69
f 83/14/75 178/14/75 177/15/71 82/15/71
f 57/40/76 152/40/76 151/41/72 56/41/72
s 0
f 31/66/77 126/66/77 125/67/77 30/67/77
s 1
f 5/92/78 100/92/78 99/93/74 4/93/74
f 84/13/79 179/13/79 178/14/75 83/14/75
f 58/39/80 153/39/80 152/40/76 57/40/76
f 32/65/81 127/65/81 126/66/82 31/66/82
f 6/91/83 101/91/83 100/92/78 5/92/78
f 85/12/84 180/12/84 179/13/79 84/13/79
f 59/38/85 154/38/85 153/39/80 58/39/80
f 33/64/86 128/64/86 127/65/81 32/65/81
f 7/90/87 102/90/87 101/91/83 6/91/83
f 86/11/88 181/11/88 180/12/84 85/12/84
f 60/37/89 155/37/89 154/38/85 59/38/85
s 0
f 34/63/90 129/63/90 128/64/90 33/64/90
s 1
f 8/89/91 103/89/91 102/90/87 7/90/87
f 87/10/92 182/10/92 181/11/88 86/11/88
f 61/36/93 156/36/93 155/37/89 60/37/89
f 35/62/94 130/62/94 129/63/95 34/63/95
f 9/88/96 104/88/96 103/89/91 8/89/91
f 88/9/97 183/9/97 182/10/92 87/10/92
f 62/35/98 157/35/98 156/36/93 61/36/93
f 36/61/99 131/61/99 130/62/94 35/62/94
f 10/87/100 105/87/100 104/88/96 9/88/96
f 89/8/4 184/8/4 183/9/97 88/9/97
f 63/34/6 158/34/6 157/35/98 62/35/98
f 37/60/8 132/60/8 131/61/99 36/61/99
f 11/86/10 106/86/10 105/87/100 10/87/100
