# Blender 4.5.3 LTS
# www.blender.org
mtllib seleno.mtl
o Plane
v 0.864443 0.017381 -0.000000
v 0.255838 3.736855 0.000000
v 0.857706 0.589581 -0.000000
v 0.875656 0.766203 -0.000000
v 1.053128 1.198493 -0.000000
v 1.062189 1.336112 -0.000000
v 1.161144 1.439124 -0.000000
v 1.178094 1.715785 0.000000
v 1.169729 2.264109 0.000000
v 1.075601 2.199387 0.000000
v 1.114593 2.597022 0.000000
v 1.075475 2.942112 0.000000
v 0.967871 3.181406 0.000000
v 0.833160 3.362940 0.000000
v 0.641253 3.549653 0.000000
v 0.409796 3.674547 0.000000
v -0.920112 0.017381 -0.000000
v -0.320372 3.736855 0.000000
v -0.869295 0.768868 -0.000000
v -1.030739 1.115264 -0.000000
v -1.156787 1.442948 -0.000000
v -1.198676 2.063312 0.000000
v -1.182713 2.293974 0.000000
v -1.122717 2.213058 0.000000
v -1.122625 2.858454 0.000000
v -0.972747 3.278126 0.000000
v -0.616965 3.593257 0.000000
v -0.920112 0.017381 0.208341
v 0.864443 0.017381 0.208341
v 0.857706 0.589581 0.208341
v 0.875656 0.766203 0.208341
v 1.053128 1.198493 0.208341
v 1.062189 1.336112 0.208341
v 1.161144 1.439124 0.208341
v 1.178094 1.715785 0.208341
v 1.169729 2.264109 0.208341
v 1.075601 2.199387 0.208341
v 1.114593 2.597022 0.208341
v 1.075475 2.942112 0.208341
v 0.967871 3.181406 0.208341
v 0.833160 3.362940 0.208341
v 0.641253 3.549653 0.208341
v 0.409796 3.674547 0.208341
v 0.255838 3.736855 0.208341
v -0.320372 3.736855 0.208341
v -0.869295 0.768868 0.208341
v -1.030739 1.115264 0.208341
v -1.156787 1.442948 0.208341
v -1.198676 2.063312 0.208341
v -1.182713 2.293974 0.208341
v -1.122717 2.213058 0.208341
v -1.122625 2.858454 0.208341
v -0.972747 3.278126 0.208341
v -0.616965 3.593257 0.208341
vn -0.0000 -0.0000 -1.0000
vn -0.0000 -0.0000 1.0000
vn 0.9997 -0.0230 -0.0000
vn 0.9999 0.0153 -0.0000
vn 0.8033 0.5956 -0.0000
vn -0.0000 -1.0000 -0.0000
vn 0.4259 0.9048 -0.0000
vn 0.1925 0.9813 -0.0000
vn -0.5666 0.8240 -0.0000
vn -0.9855 0.1695 -0.0000
vn -1.0000 0.0001 -0.0000
vn 0.9999 0.0118 -0.0000
vn 0.9990 -0.0447 -0.0000
vn -0.2258 0.9742 -0.0000
vn 0.9952 -0.0976 -0.0000
vn 1.0000 0.0075 -0.0000
vn -0.8322 0.5544 -0.0000
vn 0.9703 -0.2418 -0.0000
vn -0.9836 -0.1805 -0.0000
vn -0.9977 0.0675 -0.0000
vn 0.9648 0.2631 -0.0000
vn -0.5562 0.8311 -0.0000
vn 0.9745 -0.2243 -0.0000
vn -0.9204 -0.3909 -0.0000
vn 0.8632 0.5049 -0.0000
vn 0.9191 -0.3941 -0.0000
vn -0.9767 -0.2145 -0.0000
vn 0.7531 0.6579 -0.0000
vn 0.9200 -0.3919 -0.0000
vn -1.0000 0.0008 -0.0000
vn 0.5934 0.8049 -0.0000
vn -0.9976 0.0690 -0.0000
vt 0.415733 1.000000
vt 0.574824 1.000000
vt 0.617332 0.983248
vt 0.681238 0.949670
vt 0.734223 0.899471
vt 0.771417 0.850665
vt 0.801126 0.786329
vt 0.811927 0.693550
vt 0.801161 0.586644
vt 0.827150 0.604045
vt 0.829459 0.456625
vt 0.824779 0.382243
vt 0.797458 0.354548
vt 0.794956 0.317548
vt 0.745956 0.201325
vt 0.741000 0.153839
vt 0.742860 0.000000
vt 0.250145 0.000000
vt 0.264175 0.202041
vt 0.219601 0.295172
vt 0.184799 0.383271
vt 0.173233 0.550059
vt 0.177641 0.612074
vt 0.194206 0.590319
vt 0.194231 0.763837
vt 0.235612 0.876668
vt 0.333844 0.961393
s 0
usemtl Material.002
f 18/1/1 2/2/1 16/3/1 15/4/1 14/5/1 13/6/1 12/7/1 11/8/1 10/9/1 9/10/1 8/11/1 7/12/1 6/13/1 5/14/1 4/15/1 3/16/1 1/17/1 17/18/1 19/19/1 20/20/1 21/21/1 22/22/1 23/23/1 24/24/1 25/25/1 26/26/1 27/27/1
f 45/1/2 54/27/2 53/26/2 52/25/2 51/24/2 50/23/2 49/22/2 48/21/2 47/20/2 46/19/2 28/18/2 29/17/2 30/16/2 31/15/2 32/14/2 33/13/2 34/12/2 35/11/2 36/10/2 37/9/2 38/8/2 39/7/2 40/6/2 41/5/2 42/4/2 43/3/2 44/2/2
s 1
f 8/11/3 9/10/4 36/10/4 35/11/3
s 0
f 24/24/5 23/23/5 50/23/5 51/24/5
f 17/18/6 1/17/6 29/17/6 28/18/6
s 1
f 16/3/7 2/2/8 44/2/8 43/3/7
s 0
f 9/10/9 10/9/9 37/9/9 36/10/9
s 1
f 25/25/10 24/24/11 51/24/11 52/25/10
f 1/17/12 3/16/13 30/16/13 29/17/12
f 2/2/8 18/1/14 45/1/14 44/2/8
f 10/9/15 11/8/16 38/8/16 37/9/15
f 26/26/17 25/25/10 52/25/10 53/26/17
f 3/16/13 4/15/18 31/15/18 30/16/13
f 19/19/19 17/18/20 28/18/20 46/19/19
f 11/8/16 12/7/21 39/7/21 38/8/16
f 27/27/22 26/26/17 53/26/17 54/27/22
f 4/15/18 5/14/23 32/14/23 31/15/18
f 20/20/24 19/19/19 46/19/19 47/20/24
f 12/7/21 13/6/25 40/6/25 39/7/21
f 18/1/14 27/27/22 54/27/22 45/1/14
f 5/14/23 6/13/26 33/13/26 32/14/23
f 21/21/27 20/20/24 47/20/24 48/21/27
f 13/6/25 14/5/28 41/5/28 40/6/25
f 6/13/26 7/12/29 34/12/29 33/13/26
f 22/22/30 21/21/27 48/21/27 49/22/30
f 14/5/28 15/4/31 42/4/31 41/5/28
f 7/12/29 8/11/3 35/11/3 34/12/29
f 23/23/32 22/22/30 49/22/30 50/23/32
f 15/4/31 16/3/7 43/3/7 42/4/31
