# Blender 4.5.3 LTS
# www.blender.org
mtllib Vibe.mtl
o Plane.002
v 0.286774 3.894651 0.213697
v 0.527464 3.812809 0.213697
v 0.779641 3.715101 0.213697
v 1.032395 3.561186 0.213697
v 1.220768 3.393322 0.213697
v 1.427425 3.146385 0.213697
v 1.597723 2.880506 0.213697
v 1.676627 2.670821 0.213697
v 1.783870 2.273453 0.213697
v 1.787918 2.032345 0.213697
v 1.768927 1.765073 0.213697
v 1.715605 1.410713 0.213697
v 1.548990 1.051716 0.213697
v 1.365201 0.796857 0.213697
v 1.167652 0.576329 0.213697
v 0.914562 0.398399 0.213697
v 0.653626 0.258146 0.213697
v 0.242847 0.142309 0.213697
v -0.119157 0.119864 0.213697
v -0.427637 0.177894 0.213697
v -0.698172 0.263624 0.213697
v -1.048652 0.472612 0.213697
v -1.377620 0.823066 0.213697
v -1.655329 1.241437 0.213697
v -1.739440 1.528009 0.213697
v -1.772855 1.984412 0.213697
v -1.760839 2.341009 0.213697
v -1.707362 2.602418 0.213697
v -1.524591 2.989666 0.213697
v -1.141070 3.447166 0.213697
v -0.843329 3.650290 0.213697
v -0.472269 3.821321 0.213697
v -0.165240 3.889446 0.213697
v 0.286774 3.894651 -0.137705
v 0.527464 3.812809 -0.137705
v 0.779641 3.715101 -0.137705
v 1.032395 3.561186 -0.137705
v 1.220768 3.393322 -0.137705
v 1.427425 3.146385 -0.137705
v 1.597723 2.880506 -0.137705
v 1.676627 2.670821 -0.137705
v 1.783870 2.273453 -0.137705
v 1.787918 2.032345 -0.137705
v 1.768927 1.765073 -0.137705
v 1.715605 1.410713 -0.137705
v 1.548990 1.051716 -0.137705
v 1.365201 0.796857 -0.137705
v 1.167652 0.576329 -0.137705
v 0.914562 0.398399 -0.137705
v 0.653626 0.258146 -0.137705
v 0.242847 0.142309 -0.137705
v -0.119157 0.119864 -0.137705
v -0.427637 0.177894 -0.137705
v -0.698172 0.263624 -0.137705
v -1.048652 0.472612 -0.137705
v -1.377620 0.823066 -0.137705
v -1.655329 1.241437 -0.137705
v -1.739440 1.528009 -0.137705
v -1.772855 1.984412 -0.137705
v -1.760839 2.341009 -0.137705
v -1.707362 2.602418 -0.137705
v -1.524591 2.989666 -0.137705
v -1.141070 3.447166 -0.137705
v -0.843329 3.650290 -0.137705
v -0.472269 3.821321 -0.137705
v -0.165240 3.889446 -0.137705
vn -0.0000 -0.0000 1.0000
vn -0.0000 -0.0000 -1.0000
vn 0.4427 0.8966 -0.0000
vn 0.5955 0.8034 -0.0000
vn -0.6720 0.7405 -0.0000
vn -0.4931 0.8700 -0.0000
vn 0.3751 -0.9270 -0.0000
vn 0.1678 -0.9858 -0.0000
vn 0.7182 0.6958 -0.0000
vn -0.3198 0.9475 -0.0000
vn -0.0621 -0.9981 -0.0000
vn 0.8062 0.5916 -0.0000
vn -0.1148 0.9934 -0.0000
vn -0.2440 -0.9698 -0.0000
vn 0.8941 0.4478 -0.0000
vn 0.1579 0.9874 -0.0000
vn -0.4103 -0.9119 -0.0000
vn 0.9518 0.3067 -0.0000
vn -0.6276 -0.7786 -0.0000
vn 0.9902 0.1395 -0.0000
vn -0.7841 -0.6206 -0.0000
vn 0.9996 -0.0271 -0.0000
vn -0.9070 -0.4212 -0.0000
vn 0.9939 -0.1099 -0.0000
vn -0.9840 -0.1781 -0.0000
vn 0.9579 -0.2872 -0.0000
vn -0.9998 -0.0197 -0.0000
vn 0.8632 -0.5048 -0.0000
vn -0.9931 0.1174 -0.0000
vn 0.7792 -0.6268 -0.0000
vn -0.9490 0.3154 -0.0000
vn 0.6648 -0.7470 -0.0000
vn 0.3417 0.9398 -0.0000
vn -0.8427 0.5383 -0.0000
vn 0.5254 -0.8509 -0.0000
vt 0.029800 0.442614
vt 0.024752 0.509714
vt 0.025828 0.570244
vt 0.054334 0.670005
vt 0.075308 0.722647
vt 0.120575 0.789396
vt 0.175506 0.851391
vt 0.225578 0.893533
vt 0.292763 0.932174
vt 0.359794 0.956704
vt 0.423772 0.977250
vt 0.543922 0.975944
vt 0.625534 0.958841
vt 0.724166 0.915903
vt 0.803309 0.864908
vt 0.905253 0.750052
vt 0.953835 0.652832
vt 0.968050 0.587205
vt 0.971244 0.497680
vt 0.962362 0.383099
vt 0.940005 0.311154
vt 0.866186 0.206121
vt 0.778743 0.118139
vt 0.685582 0.065672
vt 0.613671 0.044149
vt 0.531673 0.029581
vt 0.435449 0.035215
vt 0.326259 0.064297
vt 0.256899 0.099508
vt 0.189625 0.144177
vt 0.137115 0.199541
vt 0.088262 0.263524
vt 0.043973 0.353652
vt 0.223867 0.666490
vt 0.191224 0.655875
vt 0.803309 0.723598
vt 0.724166 0.751876
vt 0.805805 0.464595
vt 0.830880 0.457917
vt 0.166895 0.644298
vt 0.625534 0.775686
vt 0.852978 0.456623
vt 0.140205 0.627267
vt 0.543922 0.785171
vt 0.871809 0.459969
vt 0.118211 0.608930
vt 0.423772 0.785895
vt 0.888323 0.464911
vt 0.108021 0.594468
vt 0.909717 0.476960
vt 0.094170 0.567063
vt 0.909717 0.520905
vt 0.929799 0.532109
vt 0.093648 0.550434
vt 0.946751 0.545484
vt 0.096100 0.532001
vt 0.940005 0.416527
vt 0.962362 0.456422
vt 0.102987 0.507561
vt 0.854362 0.380422
vt 0.863244 0.443960
vt 0.124505 0.482802
vt 0.860050 0.493604
vt 0.148242 0.465225
vt 0.845835 0.529996
vt 0.762369 0.495654
vt 0.774427 0.482940
vt 0.359794 0.774502
vt 0.797253 0.583907
vt 0.789877 0.472681
vt 0.292763 0.760899
vt 0.905253 0.659907
s 0
usemtl Material.004
f 11/1/1 10/2/1 9/3/1 8/4/1 7/5/1 6/6/1 5/7/1 4/8/1 3/9/1 2/10/1 1/11/1 33/12/1 32/13/1 31/14/1 30/15/1 29/16/1 28/17/1 27/18/1 26/19/1 25/20/1 24/21/1 23/22/1 22/23/1 21/24/1 20/25/1 19/26/1 18/27/1 17/28/1 16/29/1 15/30/1 14/31/1 13/32/1 12/33/1
f 44/1/2 45/33/2 46/32/2 47/31/2 48/30/2 49/29/2 50/28/2 51/27/2 52/26/2 53/25/2 54/24/2 55/23/2 56/22/2 57/21/2 58/20/2 59/19/2 60/18/2 61/17/2 62/16/2 63/15/2 64/14/2 65/13/2 66/12/2 34/11/2 35/10/2 36/9/2 37/8/2 38/7/2 39/6/2 40/5/2 41/4/2 42/3/2 43/2/2
s 1
f 3/34/3 4/35/4 37/35/4 36/34/3
f 30/36/5 31/37/6 64/37/6 63/36/5
f 17/38/7 18/39/8 51/39/8 50/38/7
f 4/35/4 5/40/9 38/40/9 37/35/4
f 31/37/6 32/41/10 65/41/10 64/37/6
f 18/39/8 19/42/11 52/42/11 51/39/8
f 5/40/9 6/43/12 39/43/12 38/40/9
f 32/41/10 33/44/13 66/44/13 65/41/10
f 19/42/11 20/45/14 53/45/14 52/42/11
f 6/43/12 7/46/15 40/46/15 39/43/12
f 33/44/13 1/47/16 34/47/16 66/44/13
f 20/45/14 21/48/17 54/48/17 53/45/14
f 7/46/15 8/49/18 41/49/18 40/46/15
f 21/48/17 22/50/19 55/50/19 54/48/17
f 8/49/18 9/51/20 42/51/20 41/49/18
f 22/52/19 23/53/21 56/53/21 55/52/19
f 9/51/20 10/54/22 43/54/22 42/51/20
f 23/53/21 24/55/23 57/55/23 56/53/21
f 10/54/22 11/56/24 44/56/24 43/54/22
f 24/57/23 25/58/25 58/58/25 57/57/23
f 11/56/24 12/59/26 45/59/26 44/56/24
f 25/60/25 26/61/27 59/61/27 58/60/25
f 12/59/26 13/62/28 46/62/28 45/59/26
f 26/61/27 27/63/29 60/63/29 59/61/27
f 13/62/28 14/64/30 47/64/30 46/62/28
f 27/63/29 28/65/31 61/65/31 60/63/29
f 14/66/30 15/67/32 48/67/32 47/66/30
f 1/47/16 2/68/33 35/68/33 34/47/16
f 28/65/31 29/69/34 62/69/34 61/65/31
f 15/67/32 16/70/35 49/70/35 48/67/32
f 2/68/33 3/71/3 36/71/3 35/68/33
f 29/72/34 30/36/5 63/36/5 62/72/34
f 16/70/35 17/38/7 50/38/7 49/70/35
